HIERARCHY
ROOT hip
{
	OFFSET 0.000000 0.000000 0.000000 
	CHANNELS 6 Xposition Yposition Zposition Xrotation Zrotation Yrotation
	JOINT abdomen
	{
		OFFSET 0.000000 3.402643 0.000000 
		CHANNELS 3 Xrotation Zrotation Yrotation
		JOINT chest
		{
			OFFSET 0.000000 8.438565 -0.680529 
			CHANNELS 3 Xrotation Zrotation Yrotation
			JOINT neck
			{
				OFFSET 0.000000 10.207942 -0.272212 
				CHANNELS 3 Xrotation Zrotation Yrotation
				JOINT head
				{
					OFFSET 0.000000 3.130431 0.000000 
					CHANNELS 3 Xrotation Zrotation Yrotation
					End Site
					{
						OFFSET 0.000000 3.130435 0.000000 
					}
				}
			}
			JOINT lCollar
			{
				OFFSET 3.470700 6.669187 -0.816635 
				CHANNELS 3 Yrotation Zrotation Xrotation
				JOINT lShldr
				{
					OFFSET 3.198488 0.000000 0.000000 
					CHANNELS 3 Zrotation Yrotation Xrotation
					JOINT lForeArm
					{
						OFFSET 10.139888 0.000000 0.000000 
						CHANNELS 3 Yrotation Zrotation Xrotation
						JOINT lHand
						{
							OFFSET 8.370511 0.000000 0.000000 
							CHANNELS 3 Zrotation Yrotation Xrotation
							End Site
							{
								OFFSET 4.083176 0.000000 0.000000 
							}
						}
					}
				}
			}
			JOINT rCollar
			{
				OFFSET -3.470700 6.669187 -0.816635 
				CHANNELS 3 Yrotation Zrotation Xrotation
				JOINT rShldr
				{
					OFFSET -3.198488 0.000000 0.000000 
					CHANNELS 3 Zrotation Yrotation Xrotation
					JOINT rForeArm
					{
						OFFSET -10.139888 0.000000 0.000000 
						CHANNELS 3 Yrotation Zrotation Xrotation
						JOINT rHand
						{
							OFFSET -8.370511 0.000000 0.000000 
							CHANNELS 3 Zrotation Yrotation Xrotation
							End Site
							{
								OFFSET -4.083176 0.000000 0.000000 
							}
						}
					}
				}
			}
		}
	}
	JOINT lThigh
	{
		OFFSET 5.308129 -1.633274 1.361059 
		CHANNELS 3 Xrotation Zrotation Yrotation
		JOINT lShin
		{
			OFFSET -2.041588 -20.007561 0.000000 
			CHANNELS 3 Xrotation Zrotation Yrotation
			JOINT lFoot
			{
				OFFSET 0.000000 -19.190928 -1.224953 
				CHANNELS 3 Xrotation Yrotation Zrotation
				End Site
				{
					OFFSET 0.000000 -2.449906 4.627600 
				}
			}
		}
	}
	JOINT rThigh
	{
		OFFSET -5.308129 -1.633274 1.361059 
		CHANNELS 3 Xrotation Zrotation Yrotation
		JOINT rShin
		{
			OFFSET 2.041588 -20.007561 0.000000 
			CHANNELS 3 Xrotation Zrotation Yrotation
			JOINT rFoot
			{
				OFFSET 0.000000 -19.190928 -1.224953 
				CHANNELS 3 Xrotation Yrotation Zrotation
				End Site
				{
					OFFSET 0.000000 -2.449906 4.627600 
				}
			}
		}
	}
}
MOTION
Frames: 20
Frame Time: 0.033333
0.113019 50.672394 3.469078 -0.019531 0.253906 -0.029383 0.000000 0.000000 0.000000 -3.330100 -0.204732 0.011913 5.361333 -0.114787 -0.073528 5.546875 0.039007 -0.041145 -0.384230 9.984625 -2.457349 -5.178113 -0.407570 -9.823408 0.176511 -8.782695 3.358407 -2.986311 -4.539887 -3.173063 0.094287 -9.463178 -2.483065 2.098406 -10.638510 -12.934950 0.158358 5.226025 1.437662 0.622956 6.517611 -3.305349 -1.161688 6.701052 6.056494 15.281455 -2.766635 0.401780 -13.254228 0.476222 -4.210773 -0.625410 -8.956061 -8.247641 15.032345 3.715635 -10.920094 -11.826396 -0.749156 7.232645 
0.116293 50.677929 3.474225 0.000000 0.263672 -0.039062 0.000000 0.000000 0.000000 -3.320348 -0.263229 0.005506 5.283127 -0.037969 -0.097625 5.712881 -0.146298 0.036684 -0.312180 10.001115 -2.454296 -5.069564 -0.435998 -9.749387 0.163304 -8.828131 3.249390 -2.807522 -4.578774 -3.184299 0.150246 -9.435893 -2.461413 2.107717 -10.687566 -12.896702 0.155315 5.228757 1.555649 0.688094 6.746409 -3.291887 -1.132513 6.686681 6.065282 15.199472 -2.782912 0.414629 -13.225336 0.481485 -4.207778 -0.605833 -8.958434 -8.248032 14.947001 3.726792 -10.886269 -11.779331 -0.749932 7.209657 
0.120823 50.677929 3.473444 0.048829 0.234375 -0.077885 0.000000 0.000000 0.000000 -3.291059 -0.292486 0.046115 5.156396 0.071691 -0.106971 5.937455 -0.331672 0.074038 -0.304405 10.009904 -2.427680 -4.853132 -0.375755 -9.611787 0.158594 -8.933464 3.125002 -2.925873 -4.741906 -3.167235 0.140266 -9.328166 -2.451440 2.110839 -10.657088 -13.083838 0.150356 5.161381 1.700829 0.761886 6.662668 -3.286543 -1.182015 6.708094 6.036407 15.226768 -2.764338 0.531853 -13.244608 0.502789 -4.240586 -0.645068 -8.926505 -8.216032 14.919304 3.718022 -10.899219 -11.760013 -0.764209 7.223968 
0.126613 50.674400 3.478528 0.019531 0.263672 -0.126818 0.000000 0.000000 0.000000 -3.164125 -0.360777 0.068772 5.039412 0.158164 -0.139724 6.054563 -0.565846 0.132610 -0.225216 9.975753 -2.314425 -4.703475 -0.357500 -9.965064 0.166172 -8.764807 3.327461 -3.314982 -4.802730 -3.142198 0.078709 -9.207319 -2.338634 2.075525 -10.548112 -13.335015 0.164075 5.104018 1.513921 0.981459 6.440657 -3.272784 -1.151566 6.662581 6.064027 15.227871 -2.765848 0.570635 -13.253825 0.496674 -4.243865 -0.664288 -8.982887 -8.219358 14.992975 3.705905 -10.885090 -11.797807 -0.760537 7.237265 
0.133909 50.676544 3.488117 -0.009766 0.263672 -0.156295 0.000000 0.000000 0.000000 -3.095772 -0.380304 0.040099 5.126904 0.071692 -0.096049 5.800736 -0.321880 0.113414 -0.233283 9.995399 -2.263403 -4.674505 -0.201022 -9.944856 0.162948 -8.753597 3.189095 -3.078467 -4.994960 -3.147693 0.083545 -9.323916 -2.273704 2.260184 -10.470437 -13.217029 0.161576 5.185990 1.290681 0.616623 6.292244 -3.314158 -1.093358 6.655299 6.063079 15.196372 -2.784923 0.619025 -13.255029 0.497409 -4.221703 -0.605663 -8.998449 -8.240670 14.946010 3.716506 -10.789965 -11.787146 -0.750243 7.231345 
0.140707 50.673271 3.491439 -0.019531 0.224609 -0.205155 0.000000 0.000000 0.000000 -3.046939 -0.370569 0.039256 5.117194 0.047264 -0.052639 6.025373 -0.214626 0.117086 -0.116362 10.146530 -2.222804 -4.843436 -0.212522 -10.138854 0.175050 -8.602322 3.587109 -2.930917 -5.348612 -3.147822 0.150939 -9.306686 -2.215968 2.328153 -10.490201 -13.162051 0.171710 5.245489 0.949386 0.539964 6.424717 -3.309662 -1.103555 6.679710 6.102879 15.284666 -2.783183 0.574678 -13.324606 0.502682 -4.208763 -0.595962 -8.979230 -8.249446 14.960145 3.757872 -10.648059 -11.793234 -0.766880 7.190677 
0.143724 50.677929 3.495216 -0.019531 0.263672 -0.234465 0.000000 0.000000 0.000000 -2.998116 -0.390090 0.079024 5.185721 -0.010514 -0.002090 6.025350 -0.321939 0.151215 0.000769 9.867705 -2.182734 -4.562068 -0.329091 -10.231024 0.191241 -8.525093 4.212732 -2.827789 -5.782985 -3.136145 0.203577 -9.416121 -2.173122 2.498308 -10.567013 -13.317471 0.167471 5.179907 1.065352 0.597598 6.447652 -3.306055 -1.034847 6.635299 6.090855 15.145316 -2.803944 0.678890 -13.254631 0.480751 -4.208488 -0.567031 -9.021843 -8.252557 14.914976 3.744977 -10.701019 -11.761170 -0.764580 7.212892 
0.147377 50.686607 3.499078 0.000000 0.273438 -0.253906 0.000000 0.000000 0.000000 -2.949305 -0.438871 0.090969 5.234649 -0.003847 0.000862 5.966767 -0.273148 0.159063 0.050700 9.777504 -2.141582 -4.317368 -0.406013 -10.178988 0.155262 -8.506363 4.344054 -3.727795 -6.028572 -3.049561 0.220185 -9.230678 -2.125386 2.460025 -10.596018 -13.374255 0.162707 5.160211 1.231726 0.798190 6.547393 -3.284749 -0.976292 6.624856 6.119162 15.009005 -2.833390 0.635519 -13.179819 0.494062 -4.157144 -0.498725 -9.010752 -8.242805 14.759029 3.715676 -10.667071 -11.709974 -0.748209 7.209208 
0.154296 50.684975 3.509221 0.068360 0.195312 -0.195046 0.000000 0.000000 0.000000 -2.998123 -0.409595 0.080046 5.342012 0.034752 -0.014074 5.830053 -0.243855 0.148532 0.056465 9.777596 -2.182027 -4.260952 -0.533548 -10.321740 0.130214 -8.400511 4.466296 -4.223296 -6.309975 -2.998166 0.256076 -9.154242 -2.166607 2.495823 -10.685266 -13.152236 0.160287 5.202005 1.349473 0.953783 6.409704 -3.274600 -1.113610 6.707437 6.104571 15.159024 -2.813277 0.550025 -13.267051 0.484433 -4.163000 -0.527839 -8.912606 -8.196798 14.680943 3.696211 -10.879698 -11.655469 -0.743455 7.254156 
0.157569 50.700951 3.524939 0.156250 0.136718 -0.155854 0.000000 0.000000 0.000000 -3.076243 -0.390062 0.089322 5.410570 0.094225 0.042759 5.839803 -0.312137 0.210380 0.053665 9.856212 -2.264632 -4.370448 -0.652028 -10.482849 0.130924 -8.270192 4.834357 -4.113982 -6.509406 -2.995855 0.274822 -9.116899 -2.244057 2.591691 -10.764221 -12.991719 0.158950 5.246136 1.428244 1.090959 6.417657 -3.266129 -1.025340 6.753245 6.136951 14.913150 -2.853184 0.278538 -13.212484 0.480915 -4.076891 -0.430089 -8.828406 -8.152973 14.312489 3.707379 -10.885971 -11.500612 -0.736942 7.211119 
0.167385 50.708252 3.536353 0.126953 0.117187 -0.185267 0.000000 0.000000 0.000000 -3.066481 -0.399817 0.148371 5.450419 0.237702 -0.037667 5.966570 -0.751157 0.249435 0.019569 10.013413 -2.249352 -4.564977 -0.760241 -10.492304 0.116182 -8.263717 4.616955 -3.720229 -6.341134 -3.041312 0.308231 -9.069727 -2.237815 2.733682 -10.781919 -13.233138 0.155782 5.163933 1.496031 1.144609 6.508801 -3.262484 -0.849357 6.809047 6.227151 14.759476 -2.921969 -0.040663 -13.236250 0.466581 -3.975321 -0.322828 -8.799068 -8.162034 14.146514 3.688029 -10.929413 -11.416165 -0.719299 7.239955 
0.181227 50.694790 3.544973 0.146485 0.117187 -0.175462 0.000000 0.000000 0.000000 -3.066489 -0.419321 0.139650 5.430552 0.171886 -0.009410 6.054567 -0.556090 0.220066 -0.008872 10.014729 -2.247563 -4.555083 -0.799262 -10.491588 0.098135 -8.212205 4.653892 -3.544914 -6.311913 -3.052651 0.348956 -9.071076 -2.228741 2.803731 -10.761774 -13.306664 0.158671 5.151435 1.377893 1.052410 6.571939 -3.269043 -1.054854 6.786161 6.147854 15.044629 -2.843004 0.281274 -13.290618 0.472757 -4.070979 -0.420338 -8.802310 -8.121868 14.348138 3.646984 -10.860540 -11.526795 -0.758952 7.276590 
0.187770 50.709133 3.553152 0.107422 0.126953 -0.165756 0.000000 0.000000 0.000000 -3.037187 -0.409580 0.080325 5.420152 0.048631 0.017100 6.171794 -0.468328 0.244497 -0.003986 9.809534 -2.219836 -4.350187 -0.817908 -10.471173 0.095182 -8.257250 4.555917 -3.781784 -6.471664 -3.027142 0.329118 -9.167177 -2.194154 2.934325 -10.633353 -13.488043 0.157218 5.110627 1.406475 1.135864 6.322434 -3.262629 -0.898593 6.743958 6.183310 14.804244 -2.861397 0.343444 -13.164803 0.482680 -4.053590 -0.263942 -8.786989 -8.132296 14.103275 3.627048 -10.958313 -11.403551 -0.727758 7.278989 
0.192552 50.718700 3.556500 0.058594 0.156250 -0.156064 0.000000 0.000000 0.000000 -2.988373 -0.448608 0.062481 5.449279 -0.046280 0.041504 6.054631 -0.380483 0.231781 0.000158 9.799562 -2.186384 -4.419343 -0.838041 -10.533165 0.099313 -8.209207 4.702614 -3.754549 -6.431046 -3.029033 0.307859 -9.361261 -2.163176 3.120824 -10.564609 -13.477509 0.155830 5.135816 1.476049 1.152605 6.372314 -3.261409 -0.761808 6.688087 6.188534 14.635509 -2.882125 0.478492 -13.075775 0.453811 -4.034945 -0.157163 -8.813688 -8.154892 13.989999 3.629055 -10.937360 -11.336902 -0.735373 7.263191 
0.193938 50.715557 3.553103 0.087891 0.097656 -0.185380 0.000000 0.000000 0.000000 -3.007893 -0.419343 0.080628 5.390798 -0.032476 0.043069 6.132743 -0.429288 0.233367 -0.020265 9.956594 -2.195898 -4.525568 -0.828382 -10.480158 0.096187 -8.235928 4.584717 -3.772486 -6.285323 -3.037076 0.272969 -9.370048 -2.181840 3.170204 -10.515515 -13.499205 0.153962 5.131714 1.544260 1.116926 6.477853 -3.264306 -0.830388 6.755407 6.193218 14.749920 -2.881751 0.324906 -13.175454 0.461611 -4.010044 -0.205796 -8.734013 -8.119529 13.989676 3.628901 -10.927621 -11.337899 -0.723596 7.236451 
0.199221 50.705612 3.551718 0.078125 0.087891 -0.175646 0.000000 0.000000 0.000000 -3.007897 -0.429096 0.071375 5.371212 -0.036423 0.061466 6.132752 -0.400018 0.251635 -0.027661 9.996071 -2.197203 -4.504935 -0.818153 -10.410860 0.100029 -8.316992 4.382782 -3.696776 -6.056207 -3.051458 0.225510 -9.338838 -2.187144 3.091010 -10.447445 -13.485019 0.155353 5.153584 1.505611 1.141182 6.567296 -3.263592 -0.976783 6.745414 6.105416 14.939179 -2.784949 0.382344 -13.221236 0.469435 -4.082944 -0.264068 -8.757659 -8.130388 14.136344 3.648620 -10.914927 -11.389296 -0.745443 7.248184 
0.199475 50.714291 3.550044 0.019531 0.058594 -0.205048 0.000000 0.000000 0.000000 -2.959053 -0.390104 0.059227 5.390726 -0.067585 0.102543 6.132740 -0.439045 0.263085 -0.027848 9.790497 -2.151293 -4.262417 -0.739331 -10.447553 0.095234 -8.328956 4.186481 -3.565058 -5.951141 -3.069021 0.176410 -9.463596 -2.145370 3.179637 -10.320052 -13.517956 0.156908 5.185216 1.466244 1.015500 6.530671 -3.271464 -0.791426 6.776679 6.135091 14.786955 -2.783762 0.294388 -13.182408 0.479266 -4.088383 -0.127351 -8.711404 -8.108917 13.950954 3.618270 -10.902299 -11.297894 -0.726499 7.245152 
0.201489 50.687241 3.536793 0.039063 0.029297 -0.244116 0.000000 0.000000 0.000000 -2.968809 -0.360843 0.077307 5.322498 0.006598 0.065829 6.171666 -0.751276 0.305340 0.111306 9.785094 -2.171301 -4.214692 -0.886118 -10.532116 0.096916 -8.324769 4.254692 -3.521523 -5.850930 -3.072163 0.182169 -9.493427 -2.157675 3.139625 -10.330185 -13.476974 0.163626 5.199847 1.222633 0.969941 6.469335 -3.273386 -1.151545 6.817990 6.122000 15.308583 -2.737135 0.461837 -13.365151 0.486679 -4.162825 -0.362181 -8.696017 -8.046666 14.371409 3.602959 -10.903139 -11.500738 -0.742683 7.316866 
0.209666 50.681950 3.522195 0.029297 0.009766 -0.292964 0.000000 0.000000 0.000000 -2.959040 -0.351094 0.106039 5.390931 -0.015425 0.081434 5.888495 -0.653562 0.265365 0.108789 9.794700 -2.158334 -4.164855 -0.817134 -10.451867 0.101879 -8.331126 4.470916 -3.389856 -5.745837 -3.089740 0.236603 -9.397849 -2.142352 2.972077 -10.369837 -13.449248 0.158247 5.188145 1.417522 1.019508 6.462428 -3.270363 -1.171948 6.815938 6.091537 15.389062 -2.714966 0.381512 -13.415643 0.504005 -4.154347 -0.429779 -8.699691 -8.036375 14.469944 3.571506 -10.880173 -11.521124 -0.745973 7.315597 
0.218982 50.701836 3.503810 0.019531 0.078125 -0.331991 0.000000 0.000000 0.000000 -2.949287 -0.390108 0.127520 5.420381 -0.024263 0.063915 5.771266 -0.712020 0.259831 0.162440 9.675166 -2.144296 -3.996992 -0.815809 -10.316397 0.110898 -8.417938 4.493567 -3.146591 -5.879040 -3.105782 0.209618 -9.406611 -2.131025 2.963506 -10.349823 -13.526733 0.155515 5.163347 1.505775 0.991257 6.441225 -3.272180 -0.888011 6.699609 6.142254 14.984494 -2.804968 0.357539 -13.311699 0.464898 -4.031495 -0.342415 -8.745312 -8.069719 14.231345 3.559378 -10.917676 -11.361832 -0.733792 7.307845 
